<svg xmlns="http://www.w3.org/2000/svg" width="51" height="28" fill="none">
	<path fill="#F4701E"
		d="M38.37.17a12.87 12.87 0 0 0-2.6.43 20.7 20.7 0 0 0-3.07.81 68.61 68.61 0 0 0-6.62 2.54 99.68 99.68 0 0 0-7 3.56L18 8.13a40.5 40.5 0 0 0-3.58 2.22c0 .06.43-.12.55-.21.04-.04.44-.24.88-.45l2.57-1.25c.65-.33 1.3-.62 1.36-.62l.82-.37a46.8 46.8 0 0 1 2.58-1.13l1.44-.6c.43-.17.87-.35.96-.4.1-.05.44-.17.76-.29.33-.11 1.22-.42 1.98-.7a36.45 36.45 0 0 1 3.95-1.26c.18-.12 2.76-.67 4.48-.96.35-.06 1.47-.1 2.49-.1 1.68 0 1.92 0 2.61.2 1.16.32 2.14.84 2.67 1.43l.26.28-.06-.47A3.5 3.5 0 0 0 42.89.86c-1.17-.62-2.54-.82-4.52-.7Z" />
	<path fill="#F4701E"
		d="M36.28 4.63a17.24 17.24 0 0 0-2.95.43 34.7 34.7 0 0 0-6.45 1.74c-.3.08-.59.2-.64.24-.05.04-.3.13-.55.2-.25.09-.49.18-.54.22-.04.04-.3.14-.54.23-.26.08-.5.18-.55.22-.04.03-.27.13-.5.22-.24.09-.46.19-.51.22a2.6 2.6 0 0 1-.5.22l-.51.23a151.76 151.76 0 0 0-9.19 4.71l-1.87 1.04c-.34.18-.6.34-.58.36.01.02.5-.19 1.08-.46a16.88 16.88 0 0 1 1.45-.64 18 18 0 0 1 1.69-.7l.59-.27c.14-.07.61-.27 1.05-.44l.97-.4.68-.28 1.18-.44c1.13-.44 4.58-1.66 5.52-1.95l1.22-.4c.18-.07.58-.19.88-.27.3-.07.74-.2.97-.26a56.1 56.1 0 0 1 6.58-1.44c1.31-.22 6.2-.23 7.08-.01 2.04.49 3.27 1.1 4.35 2.18.32.32.58.55.58.5-.01-.3-.4-1.6-.62-2.08a5 5 0 0 0-3.27-2.53 9.06 9.06 0 0 1-.83-.23c-.6-.23-3.2-.3-5.27-.16Z" />
	<path fill="#F4701E"
		d="M35.06 9.78a23.5 23.5 0 0 0-3.46.56c-2.13.44-4.3 1.02-6.57 1.73a79.97 79.97 0 0 0-8.22 3.22c-.03 0-.22.08-.41.18l-.98.45-1.05.48a94.3 94.3 0 0 0-3.83 1.84l-1.33.66c-.52.27-.96.48-.99.48l-1.25.6a67.52 67.52 0 0 1-1.72.88c.02.03.76-.25 1.2-.45.14-.07.41-.17.63-.23.2-.06.42-.14.46-.18.05-.03.28-.13.5-.2a341.1 341.1 0 0 1 4.42-1.57l2.5-.9c.16-.08.78-.29 1.93-.63a8 8 0 0 0 .76-.25c.1-.05.46-.17.8-.28l1.31-.39 3.24-.94 1.52-.4c1.33-.35 2.61-.64 3.84-.88l1.22-.26c.12-.05 1.8-.3 3.33-.5 1.99-.27 5.84-.27 7.25 0 1.9.35 2.85.65 4.17 1.3 1.25.64 2.66 1.77 3.55 2.85l.33.4v-.3c0-1.3-.69-2.96-1.67-4.08C44.4 10.5 40.4 9.4 35.06 9.78Z" />
	<path fill="#F4701E"
		d="M34.05 16.46a31.62 31.62 0 0 0-6.11 1.02 27.72 27.72 0 0 0-3.3.88c-.31.08-.64.17-.7.21-.08.04-.42.15-.77.23a4.7 4.7 0 0 0-.71.23 3.9 3.9 0 0 1-.68.22c-.32.09-.62.19-.67.22a3.9 3.9 0 0 1-.68.22c-.32.1-.62.19-.67.23-.04.03-.31.13-.59.2l-.67.24c-.1.05-.65.25-1.23.45a28.5 28.5 0 0 0-1.94.72l-.46.16c-.04.04-.3.14-.55.23-.25.09-.5.18-.54.22-.05.04-.3.13-.55.22l-.55.22c-.04.04-.3.14-.55.22-.25.09-.57.21-.71.28-.14.06-.62.27-1.06.44-.44.18-.87.35-.96.4-.08.06-.31.16-.5.22-.44.15-1.38.55-1.66.7-.11.07-.36.17-.54.23a2.4 2.4 0 0 0-.43.18c-.07.07-.43.23-1.43.63l-.67.3c-.14.08-.54.26-.89.4l-.88.4-.91.42c-.37.15-.64.29-.63.3.03.04 1.4-.43 1.7-.57l.64-.23.63-.22c.1-.05.4-.16.67-.24.28-.08.55-.17.6-.2.04-.04.35-.14.67-.23.33-.09.63-.19.67-.23.05-.04.33-.14.64-.2.3-.09.62-.2.71-.24.1-.04.46-.17.8-.27l1.3-.4c3.05-.93 4.79-1.41 8.1-2.23a88.01 88.01 0 0 1 12.68-2.08c1.31-.1 5.67-.1 6.75 0 1.07.1 3.34.43 3.66.53l.97.26a14.69 14.69 0 0 1 2.73.9c.53.18 2.13 1.07 2.96 1.66a16.07 16.07 0 0 1 3.12 3.13 7 7 0 0 0-.14-.96 9.2 9.2 0 0 0-3.37-6 12.9 12.9 0 0 0-3.65-2.15 21.4 21.4 0 0 0-3.97-1.06c-.76-.13-3.5-.32-4.13-.3-.18 0-.88.05-1.55.09Z" />
</svg>